<?xml version="1.0" encoding="utf-8"?>
<!-- Generator: Adobe Illustrator 20.1.0, SVG Export Plug-In . SVG Version: 6.00 Build 0)  -->
<svg version="1.1" id="Layer_1" xmlns="http://www.w3.org/2000/svg" xmlns:xlink="http://www.w3.org/1999/xlink" x="0px" y="0px"
	 viewBox="0 0 255 45" style="enable-background:new 0 0 255 45;" xml:space="preserve">
<style type="text/css">
	.st0{fill:#1ABC9C;}
</style>
<g>
	<g>
		<g>
			<path class="st0" d="M80,15.9h5.9l1.9,4.8c0.1,0.4,0.3,0.8,0.4,1.2c0.1,0.4,0.3,0.8,0.4,1.2c0.1,0.5,0.3,0.9,0.4,1.4
				c0.1-0.5,0.3-0.9,0.4-1.4c0.1-0.4,0.3-0.8,0.4-1.2c0.2-0.4,0.3-0.8,0.5-1.2l2.7-5.3h0.4l2.9,5.3c0.2,0.4,0.3,0.8,0.5,1.2
				c0.2,0.4,0.3,0.8,0.5,1.2c0.2,0.5,0.3,0.9,0.4,1.4c0.1-0.5,0.3-0.9,0.4-1.4c0.1-0.4,0.3-0.8,0.4-1.2c0.1-0.4,0.3-0.8,0.4-1.2
				l2-4.8h5.3l-7.8,17.5h-0.5l-3.6-6.8c-0.2-0.3-0.3-0.6-0.5-1.1s-0.2-0.8-0.3-1.1c-0.1-0.4-0.2-0.8-0.3-1.2
				c-0.1,0.4-0.3,0.8-0.4,1.2c-0.1,0.4-0.3,0.8-0.4,1.1c-0.1,0.4-0.3,0.7-0.5,1L88,33.4h-0.4L80,15.9z"/>
			<path class="st0" d="M112.9,26.1c0.3,0.9,0.8,1.5,1.4,2.1c0.7,0.5,1.7,0.7,2.9,0.7c1,0,1.8-0.2,2.5-0.5s1.3-0.6,1.7-0.9l3,3.3
				c-0.8,0.7-1.8,1.3-2.9,1.8c-1.1,0.5-2.6,0.7-4.3,0.7c-1.5,0-2.8-0.2-4.1-0.6s-2.3-1.1-3.1-1.8c-0.9-0.8-1.5-1.7-2-2.8
				c-0.5-1.1-0.7-2.3-0.7-3.6c0-1.3,0.2-2.5,0.7-3.5c0.5-1.1,1.1-2,2-2.8c0.8-0.8,1.8-1.4,3-1.8c1.1-0.4,2.3-0.6,3.7-0.6
				c1.5,0,2.8,0.3,4,0.8c1.2,0.5,2.1,1.3,2.9,2.2c0.8,0.9,1.3,2.1,1.7,3.4c0.3,1.3,0.5,2.7,0.3,4.2h-12.7V26.1z M120.2,23
				c-0.1-0.9-0.5-1.7-1-2.2c-0.6-0.5-1.4-0.8-2.4-0.8c-1,0-1.9,0.2-2.6,0.8c-0.7,0.5-1.1,1.2-1.3,2.2C112.8,23,120.2,23,120.2,23z"
				/>
			<path class="st0" d="M139.7,33.3c-1.3,0-2.4-0.2-3.2-0.8c-0.9-0.5-1.6-1.2-2-2.1l0.1,2.5h-5.3V4h5.3v14.3c0.5-0.8,1.2-1.5,2.1-2
				c0.8-0.5,1.9-0.8,3.2-0.8c1,0,2,0.2,2.9,0.6c0.9,0.4,1.7,1.1,2.4,1.8c0.7,0.8,1.2,1.7,1.6,2.8s0.6,2.3,0.6,3.6
				c0,1.3-0.2,2.5-0.6,3.6c-0.4,1.1-1,2-1.6,2.8c-0.7,0.8-1.5,1.4-2.4,1.8C141.7,33.2,140.7,33.3,139.7,33.3z M138.1,28.6
				c1.1,0,2-0.4,2.7-1.1c0.6-0.7,1-1.8,1-3.1c0-1.3-0.3-2.3-1-3s-1.6-1.1-2.7-1.1c-1.2,0-2.1,0.4-2.7,1.1c-0.7,0.7-1,1.7-1,3
				c0,1.4,0.3,2.4,1,3.1C136,28.3,137,28.6,138.1,28.6z"/>
			<path class="st0" d="M157.1,33.3c-1.9,0-3.5-0.3-4.7-0.9c-1.2-0.6-2.2-1.4-2.9-2.3l3.1-2.8c0.6,0.5,1.2,1,1.9,1.3
				c0.7,0.3,1.4,0.5,2.3,0.5c0.9,0,1.4-0.1,1.8-0.2c0.3-0.2,0.5-0.4,0.5-0.8c0-0.2-0.1-0.4-0.2-0.6c-0.1-0.1-0.3-0.2-0.7-0.4
				c-0.3-0.1-0.7-0.2-1.2-0.3c-0.5-0.1-1-0.2-1.7-0.4c-0.6-0.2-1.2-0.4-1.7-0.6c-0.6-0.2-1.1-0.6-1.6-1c-0.5-0.4-0.8-0.9-1.1-1.6
				c-0.3-0.6-0.4-1.4-0.4-2.2c0-0.9,0.2-1.8,0.5-2.5c0.3-0.7,0.8-1.2,1.4-1.7c0.6-0.4,1.3-0.8,2.1-0.9s1.6-0.3,2.5-0.3
				c1.4,0,2.6,0.2,3.6,0.6c1,0.4,1.9,1,2.5,1.7l-2.8,3.1c-0.4-0.4-0.9-0.6-1.4-0.9c-0.6-0.2-1.2-0.4-1.8-0.4c-1.2,0-1.8,0.4-1.8,1
				c0,0.5,0.3,0.8,0.8,0.9c0.5,0.2,1.4,0.4,2.6,0.6c0.6,0.1,1.2,0.3,1.9,0.6c0.6,0.2,1.3,0.5,1.8,0.9s1,0.9,1.3,1.5
				c0.3,0.6,0.5,1.4,0.5,2.3c0,0.8-0.1,1.5-0.3,2.2c-0.2,0.7-0.6,1.3-1.2,1.8c-0.5,0.5-1.2,0.9-2.1,1.2
				C159.5,33.2,158.4,33.3,157.1,33.3z"/>
			<path class="st0" d="M175.9,33.3c-1.3,0-2.6-0.2-3.7-0.6c-1.1-0.4-2.1-1.1-3-1.8c-0.8-0.8-1.5-1.7-2-2.8
				c-0.5-1.1-0.7-2.3-0.7-3.5c0-1.3,0.2-2.5,0.7-3.6c0.5-1.1,1.1-2,2-2.8c0.8-0.8,1.8-1.4,3-1.8c1.1-0.4,2.3-0.6,3.7-0.6
				c1.3,0,2.5,0.2,3.6,0.6c1.1,0.4,2.1,1.1,3,1.8c0.8,0.8,1.4,1.7,2,2.8c0.5,1.1,0.7,2.3,0.7,3.6s-0.2,2.5-0.7,3.5
				c-0.5,1.1-1.1,2-2,2.8c-0.8,0.8-1.8,1.4-3,1.8C178.4,33.2,177.2,33.3,175.9,33.3z M175.9,28.8c1.2,0,2.1-0.4,2.8-1.2
				c0.7-0.8,1-1.8,1-3.1c0-1.3-0.3-2.3-1-3.1c-0.7-0.8-1.6-1.2-2.8-1.2c-1.2,0-2.1,0.4-2.8,1.2c-0.7,0.8-1,1.8-1,3.1
				c0,1.3,0.3,2.3,1,3.1C173.8,28.4,174.7,28.8,175.9,28.8z"/>
			<path class="st0" d="M188.8,4.1h5.3V33h-5.3V4.1z"/>
			<path class="st0" d="M206.3,33.5c-2.7,0-4.7-0.7-6-2.2c-1.3-1.5-2-3.4-2-6v-9.4h5.3v9.3c0,1.2,0.2,2.1,0.6,2.7s1.2,0.9,2.2,0.9
				c1.1,0,1.9-0.3,2.3-0.9c0.4-0.6,0.6-1.5,0.6-2.7v-9.3h5.3v9.4c0,2.5-0.8,4.5-2.2,6C211,32.7,208.9,33.5,206.3,33.5z"/>
			<path class="st0" d="M226.2,33.5c-0.9,0-1.6-0.1-2.4-0.4c-0.8-0.2-1.3-0.6-1.9-1.2c-0.5-0.5-0.9-1.2-1.2-2.1
				c-0.3-0.9-0.5-1.9-0.5-3.2v-6.1h-2.4v-4.5h2.5V7.1h5.3V16h4.3v4.5h-4.3v6.3c0,0.8,0.1,1.4,0.3,1.7s0.6,0.4,1,0.4
				c0.5,0,0.8-0.1,1.1-0.2c0.3-0.2,0.5-0.4,0.8-0.5l2,3.8c-0.4,0.4-1,0.7-1.7,1.1C228.4,33.3,227.4,33.5,226.2,33.5z"/>
			<path class="st0" d="M238.2,26.1c0.3,0.9,0.8,1.5,1.4,2.1c0.7,0.5,1.7,0.7,2.9,0.7c1,0,1.8-0.2,2.5-0.5c0.7-0.3,1.3-0.6,1.7-0.9
				l3,3.3c-0.8,0.7-1.8,1.3-2.9,1.8c-1.1,0.5-2.6,0.7-4.3,0.7c-1.5,0-2.8-0.2-4.1-0.6s-2.3-1.1-3.1-1.8c-0.9-0.8-1.5-1.7-2-2.8
				c-0.5-1.1-0.7-2.3-0.7-3.6c0-1.3,0.2-2.5,0.7-3.5c0.5-1.1,1.1-2,2-2.8c0.8-0.8,1.8-1.4,3-1.8c1.1-0.4,2.3-0.6,3.7-0.6
				c1.5,0,2.8,0.3,4,0.8c1.2,0.5,2.1,1.3,2.9,2.2c0.8,0.9,1.3,2.1,1.7,3.4c0.3,1.3,0.5,2.7,0.3,4.2h-12.7V26.1z M245.6,23
				c-0.1-0.9-0.5-1.7-1-2.2c-0.6-0.5-1.4-0.8-2.4-0.8c-1,0-1.9,0.2-2.6,0.8c-0.7,0.5-1.1,1.2-1.3,2.2C238.2,23,245.6,23,245.6,23z"
				/>
		</g>
	</g>
	<g>
		<path id="XMLID_2_" class="st0" d="M10.7,12.5c2.7,0,4.9,0.5,6.8,1.6c1.9,1,2.8,2.3,2.8,3.8v5.2c0,1.1,0.6,2,2,2.7
			c1.4,0.8,2.8,1.1,4.8,1.1s3.5-0.4,4.8-1.1c1.4-0.8,2-1.7,2-2.7V12.5h2.8c2.7,0,4.9,0.5,6.8,1.6s2.8,2.3,2.8,3.8v5.2
			c0,1.1,0.6,2,2,2.7c1.4,0.8,2.9,1.1,4.8,1.1c1.9,0,3.5-0.4,4.8-1.1c1.4-0.8,2-1.7,2-2.7v-5.2c0-1.5,1-2.7,2.8-3.8s4.2-1.6,6.8-1.6
			h2.7V9.6c0-3.1-4.5-5.6-10.1-5.6H18C12.5,4,7.9,6.5,7.9,9.6v2.9H10.7z"/>
		<path id="XMLID_1_" class="st0" d="M66.7,30.6c-3.7,2-8.3,3-13.6,3c-3,0-5.8-0.4-8.5-1.1c-1.7-0.4-3.1-1-4.5-1.7
			c-1.4,0.7-2.9,1.3-4.6,1.7c-2.7,0.7-5.5,1.1-8.5,1.1c-5.2,0-9.8-1-13.6-3c-3.6-1.9-5.4-4.3-5.6-7v10.6c0,3.1,4.5,5.6,10.1,5.6
			h44.2c5.6,0,10.1-2.5,10.1-5.6V23.6C72.1,26.3,70.2,28.6,66.7,30.6z"/>
	</g>
</g>
</svg>
